HIERARCHY
ROOT root
{
	OFFSET 0.000000 0.000000 0.000000
	CHANNELS 6 Xposition Yposition Zposition Zrotation Yrotation Xrotation
	JOINT lhip
	{
		OFFSET 0.058581 -0.082280 -0.017664
		CHANNELS 3 Zrotation Yrotation Xrotation
		JOINT lknee
		{
			OFFSET 0.043451 -0.386469 0.008037
			CHANNELS 3 Zrotation Yrotation Xrotation
			JOINT lankle
			{
				OFFSET -0.014790 -0.426874 -0.037428
				CHANNELS 3 Zrotation Yrotation Xrotation
				JOINT ltoe
				{
					OFFSET 0.041054 -0.060286 0.122042
					CHANNELS 3 Zrotation Yrotation Xrotation
					End Site
					{
						OFFSET 0.000000 0.000000 0.000000
					}
				}
			}
		}
	}
	JOINT rhip
	{
		OFFSET -0.060310 -0.090513 -0.013543
		CHANNELS 3 Zrotation Yrotation Xrotation
		JOINT rknee
		{
			OFFSET -0.043257 -0.383688 -0.004843
			CHANNELS 3 Zrotation Yrotation Xrotation
			JOINT rankle
			{
				OFFSET 0.019056 -0.420046 -0.034562
				CHANNELS 3 Zrotation Yrotation Xrotation
				JOINT rtoe
				{
					OFFSET -0.034840 -0.062106 0.130323
					CHANNELS 3 Zrotation Yrotation Xrotation
					End Site
					{
						OFFSET 0.000000 0.000000 0.000000
					}
				}
			}
		}
	}
	JOINT lowerback
	{
		OFFSET 0.004439 0.124404 -0.038385
		CHANNELS 3 Zrotation Yrotation Xrotation
		JOINT upperback
		{
			OFFSET 0.004488 0.137956 0.026820
			CHANNELS 3 Zrotation Yrotation Xrotation
			JOINT chest
			{
				OFFSET -0.002265 0.056032 0.002855
				CHANNELS 3 Zrotation Yrotation Xrotation
				JOINT lowerneck
				{
					OFFSET -0.013390 0.211636 -0.033468
					CHANNELS 3 Zrotation Yrotation Xrotation
					JOINT upperneck
					{
						OFFSET 0.010113 0.088937 0.050410
						CHANNELS 3 Zrotation Yrotation Xrotation
						End Site
						{
							OFFSET 0.000000 0.000000 0.000000
						}
					}
				}
				JOINT lclavicle
				{
					OFFSET 0.071702 0.114000 -0.018898
					CHANNELS 3 Zrotation Yrotation Xrotation
					JOINT lshoulder
					{
						OFFSET 0.122921 0.045205 -0.019046
						CHANNELS 3 Zrotation Yrotation Xrotation
						JOINT lelbow
						{
							OFFSET 0.255332 -0.015649 -0.022946
							CHANNELS 3 Zrotation Yrotation Xrotation
							JOINT lwrist
							{
								OFFSET 0.265709 0.012698 -0.007375
								CHANNELS 3 Zrotation Yrotation Xrotation
								End Site
								{
									OFFSET 0.000000 0.000000 0.000000
								}
							}
						}
					}
				}
				JOINT rclavicle
				{
					OFFSET -0.082954 0.112472 -0.023707
					CHANNELS 3 Zrotation Yrotation Xrotation
					JOINT rshoulder
					{
						OFFSET -0.113228 0.046853 -0.008472
						CHANNELS 3 Zrotation Yrotation Xrotation
						JOINT relbow
						{
							OFFSET -0.260127 -0.014369 -0.031269
							CHANNELS 3 Zrotation Yrotation Xrotation
							JOINT rwrist
							{
								OFFSET -0.269108 0.006794 -0.006027
								CHANNELS 3 Zrotation Yrotation Xrotation
								End Site
								{
									OFFSET 0.000000 0.000000 0.000000
								}
							}
						}
					}
				}
			}
		}
	}
}
MOTION
Frames: 13
Frame Time: 0.033333
0.522591 0.235309 0.984487 92.449483 3.728147 95.337475 7.901533 3.259510 -4.330277 3.064172 -5.012242 -7.235076 -1.848251 9.356573 -2.675624 0.000000 -0.000000 0.000000 -1.162312 -3.152073 -6.748895 -1.493410 0.306348 0.760008 4.819136 -6.912285 -3.989323 0.000000 -0.000000 0.000000 0.098783 0.417170 0.084706 2.962880 -3.418396 -1.236485 0.560178 0.473188 -6.169772 -0.402012 2.679908 3.289538 2.442847 2.095041 1.073733 -21.506764 5.867493 -3.694773 -62.582644 -2.349658 21.413925 8.692962 -14.287963 7.750007 -4.803356 -7.882012 6.104999 23.174239 -0.119353 -1.245939 53.968941 6.054822 17.764649 -3.909513 11.176565 5.335946 4.991615 3.225666 4.529275 
0.523042 0.235298 0.984232 92.446222 3.761099 95.200631 7.944909 3.234668 -4.097475 3.078673 -5.029915 -7.344645 -1.876683 9.402020 -2.676711 0.000000 -0.000000 0.000000 -1.112015 -3.239149 -6.514732 -1.540334 0.461362 0.634447 4.991710 -6.953739 -3.968324 0.000000 -0.000000 0.000000 0.204942 0.420707 0.492968 2.892689 -3.401629 -1.940691 0.619840 0.548661 -5.714807 -0.422302 2.598749 3.214044 2.393788 2.116827 1.153745 -21.485644 5.796085 -3.729618 -62.678636 -2.395472 21.287514 8.705497 -14.477428 8.224635 -4.534084 -7.743902 5.628272 23.110478 -0.084333 -1.177807 53.929182 6.096142 17.604016 -3.935234 11.066507 5.440377 4.892647 3.231270 4.591818 
0.523397 0.235399 0.984107 92.525942 3.727617 95.182854 7.883550 3.202127 -4.028518 3.122247 -5.060712 -7.432316 -1.891089 9.403548 -2.647564 0.000000 -0.000000 0.000000 -1.171393 -3.175503 -6.395301 -1.530712 0.392734 0.527852 5.010425 -7.017828 -3.935663 0.000000 -0.000000 0.000000 0.200243 0.335072 0.559135 2.885063 -3.394987 -2.036598 0.649387 0.565543 -5.664247 -0.436975 2.533892 3.232133 2.395701 2.134073 1.156547 -21.477589 5.760676 -3.682031 -62.735731 -2.462287 21.260481 8.702340 -14.586683 8.276371 -4.519235 -7.765148 5.515423 23.066715 -0.033059 -1.143454 53.893051 6.129337 17.566843 -3.960610 10.947449 5.391908 4.813506 3.196185 4.553277 
0.523790 0.235383 0.984074 92.551896 3.730190 95.240138 7.890273 3.210062 -4.012361 3.129975 -5.082575 -7.531727 -1.912399 9.364370 -2.603757 0.000000 -0.000000 0.000000 -1.156979 -3.168045 -6.420368 -1.543372 0.320824 0.521651 5.025867 -7.037964 -3.926478 0.000000 -0.000000 0.000000 0.219899 0.304478 0.625327 2.893546 -3.379815 -2.205211 0.671132 0.545964 -5.660122 -0.446542 2.486900 3.355879 2.442636 2.086791 1.071143 -21.413756 5.729059 -3.640360 -62.887349 -2.513815 21.280353 8.763994 -14.640004 8.337238 -4.586650 -7.775634 5.487240 22.987502 -0.022916 -1.161392 53.922643 6.175607 17.552693 -3.983458 10.820291 5.464430 4.890222 3.194093 4.538214 
0.523993 0.235395 0.984043 92.571255 3.722246 95.245569 7.888118 3.212992 -3.991077 3.120653 -5.074992 -7.556031 -1.937125 9.333735 -2.608181 0.000000 -0.000000 0.000000 -1.158681 -3.167738 -6.393271 -1.558221 0.301785 0.488134 5.029180 -7.037301 -3.926232 0.000000 -0.000000 0.000000 0.192250 0.294219 0.598218 2.907227 -3.392310 -2.159475 0.679966 0.545220 -5.665331 -0.419324 2.511459 3.406610 2.546576 1.989943 1.004952 -21.377177 5.713327 -3.637656 -62.957575 -2.548091 21.255004 8.793195 -14.662879 8.336153 -4.552674 -7.809792 5.521207 22.987127 -0.009505 -1.155334 53.905319 6.197212 17.515213 -3.967547 10.835486 5.493044 4.879212 3.245243 4.585669 
0.524393 0.235368 0.984210 92.658938 3.680111 95.319618 7.827574 3.195024 -4.057834 3.156818 -5.090218 -7.567213 -1.969210 9.348419 -2.571983 0.000000 -0.000000 0.000000 -1.171285 -3.185549 -6.407355 -1.596379 0.339020 0.434804 5.027701 -7.115907 -3.886068 0.000000 -0.000000 0.000000 0.305083 0.417852 0.797081 2.819463 -3.366869 -2.312818 0.556315 0.366824 -5.859898 -0.365896 2.254962 3.251399 2.488422 1.820015 1.115090 -21.311159 5.946761 -3.745673 -62.866831 -2.497946 21.371158 8.668704 -14.883974 8.551746 -4.540412 -7.884387 5.573076 23.137785 -0.314760 -1.365828 53.852623 6.101851 17.606029 -3.908765 10.962198 5.623250 4.974970 3.307243 4.700165 
0.524688 0.235372 0.984294 92.670968 3.677406 95.317125 7.833383 3.187900 -4.006847 3.151367 -5.099064 -7.612605 -2.009262 9.346767 -2.521482 0.000000 -0.000000 0.000000 -1.174801 -3.188166 -6.370101 -1.587580 0.373145 0.413588 5.017668 -7.177473 -3.882122 0.000000 -0.000000 0.000000 0.429396 0.529392 1.024850 2.734909 -3.315377 -2.480744 0.484334 0.180378 -6.017697 -0.270047 1.918842 3.077307 2.489355 1.563782 1.473628 -21.276652 6.040989 -3.633320 -62.784772 -2.536494 21.324256 8.574289 -14.960598 8.717255 -4.626560 -7.868807 5.444167 23.217103 -0.478451 -1.424307 53.876059 6.077697 17.682478 -3.924178 11.065977 5.785343 5.034365 3.264797 4.664190 
0.524783 0.235386 0.984300 92.609695 3.729058 95.379497 7.881869 3.203745 -4.052707 3.164102 -5.038791 -7.612083 -1.963866 9.330756 -2.542881 0.000000 -0.000000 0.000000 -1.111276 -3.203479 -6.474206 -1.583156 0.388243 0.454442 4.995788 -7.108767 -3.876993 0.000000 -0.000000 0.000000 0.442073 0.546985 0.909638 2.780238 -3.345999 -2.311022 0.501914 0.226523 -6.114727 -0.238016 2.033099 3.225705 2.486146 1.635019 1.302329 -21.306153 5.959513 -3.634679 -62.783883 -2.534309 21.325995 8.609312 -14.961304 8.570740 -4.638842 -7.827399 5.464172 23.201568 -0.391206 -1.369717 53.901524 6.110655 17.691586 -3.938599 11.148443 5.746392 5.039306 3.259602 4.672711 
0.525063 0.235402 0.984124 92.577850 3.762534 95.448654 7.907474 3.222220 -4.084182 3.171498 -4.954168 -7.649444 -1.967760 9.285014 -2.545983 0.000000 -0.000000 0.000000 -1.071030 -3.245480 -6.555792 -1.583114 0.366915 0.481583 5.042294 -7.016654 -3.866880 0.000000 -0.000000 0.000000 0.353439 0.445792 0.696793 2.866427 -3.419391 -2.225605 0.599951 0.381069 -5.975885 -0.301206 2.122165 3.261999 2.513172 1.663421 1.218463 -21.358151 5.862891 -3.661281 -62.825299 -2.547410 21.310209 8.715635 -14.904336 8.398586 -4.682641 -7.892753 5.510053 23.146776 -0.175840 -1.300703 53.900540 6.122418 17.692689 -3.937026 11.247005 5.714772 5.053326 3.287293 4.628758 
0.525520 0.235474 0.983934 92.505192 3.781320 95.441554 7.934572 3.247454 -3.978309 3.157462 -4.896493 -7.755795 -1.957206 9.275470 -2.543633 0.000000 -0.000000 0.000000 -1.073091 -3.242355 -6.513755 -1.562148 0.362214 0.439717 5.039389 -6.940505 -3.831289 0.000000 -0.000000 0.000000 0.246634 0.377995 0.497208 2.953862 -3.419553 -2.143323 0.705773 0.508270 -5.790502 -0.364844 2.075286 3.222389 2.481414 1.634941 1.277047 -21.414999 5.725159 -3.628861 -62.883609 -2.592054 21.330384 8.831307 -14.809133 8.300759 -4.611943 -7.881828 5.509516 23.047339 0.042949 -1.201004 53.914663 6.121492 17.726560 -3.959874 11.342332 5.646748 4.989724 3.290860 4.434097 
0.525947 0.235398 0.984090 92.411694 3.739095 95.521498 7.880570 3.284030 -4.001195 3.174428 -4.915497 -7.792230 -1.952441 9.348454 -2.500589 0.000000 -0.000000 0.000000 -1.091344 -3.232401 -6.600183 -1.588600 0.452113 0.447055 5.063287 -6.984498 -3.821532 0.000000 -0.000000 0.000000 0.310995 0.542405 0.686565 2.847576 -3.320006 -2.342598 0.614999 0.402921 -6.010366 -0.298890 2.059691 3.160776 2.528469 1.700786 1.411579 -21.298040 5.910556 -3.697774 -62.823917 -2.509687 21.364360 8.702102 -14.733311 8.413050 -4.673445 -7.765493 5.462405 23.133154 -0.253948 -1.295287 53.960055 5.970424 17.840079 -3.911694 11.519301 5.830258 5.059466 3.287328 4.455111 
0.526205 0.235426 0.984163 92.386906 3.729196 95.521254 7.890731 3.305941 -4.004432 3.117168 -4.915274 -7.728990 -1.944014 9.360385 -2.515948 0.000000 -0.000000 0.000000 -1.107201 -3.225207 -6.562411 -1.582898 0.488077 0.399910 5.067929 -7.011613 -3.825114 0.000000 -0.000000 0.000000 0.406661 0.667464 0.858733 2.751751 -3.264073 -2.423862 0.524180 0.282026 -6.158194 -0.202401 2.090689 3.161687 2.482647 1.730877 1.319231 -21.197765 6.008215 -3.722675 -62.811071 -2.483011 21.331182 8.669800 -14.736184 8.466880 -4.674570 -7.767112 5.444808 23.225443 -0.442260 -1.353525 53.961559 5.914725 17.877730 -3.890908 11.632157 5.927220 5.092440 3.307463 4.525104 
0.526537 0.235504 0.984192 92.349880 3.735237 95.531857 7.887761 3.305014 -3.999216 3.125506 -4.881337 -7.702421 -1.944300 9.390151 -2.581446 0.000000 -0.000000 0.000000 -1.109496 -3.220620 -6.533754 -1.577816 0.524978 0.361985 5.086166 -7.019157 -3.829342 0.000000 -0.000000 0.000000 0.432858 0.695961 0.871651 2.721232 -3.233418 -2.462406 0.503202 0.262986 -6.199472 -0.141871 2.057701 3.175642 2.486755 1.717035 1.407160 -21.162011 6.032118 -3.706219 -62.794484 -2.445916 21.323874 8.660965 -14.698735 8.458187 -4.595796 -7.761968 5.437516 23.214181 -0.462346 -1.322180 53.997690 5.843096 17.915283 -3.897238 11.690328 5.904161 4.998767 3.308265 4.466005 
